<svg width="190" height="40" viewBox="0 0 190 40" fill="none" xmlns="http://www.w3.org/2000/svg">
<path d="M56 21.746C56 20.29 56.286 18.9987 56.858 17.872C57.4473 16.7453 58.236 15.8787 59.224 15.272C60.2293 14.6653 61.3473 14.362 62.578 14.362C63.6527 14.362 64.5887 14.5787 65.386 15.012C66.2007 15.4453 66.8507 15.9913 67.336 16.65V14.596H71.002V29H67.336V26.894C66.868 27.57 66.218 28.1333 65.386 28.584C64.5713 29.0173 63.6267 29.234 62.552 29.234C61.3387 29.234 60.2293 28.922 59.224 28.298C58.236 27.674 57.4473 26.7987 56.858 25.672C56.286 24.528 56 23.2193 56 21.746ZM67.336 21.798C67.336 20.914 67.1627 20.16 66.816 19.536C66.4693 18.8947 66.0013 18.4093 65.412 18.08C64.8227 17.7333 64.19 17.56 63.514 17.56C62.838 17.56 62.214 17.7247 61.642 18.054C61.07 18.3833 60.602 18.8687 60.238 19.51C59.8913 20.134 59.718 20.8793 59.718 21.746C59.718 22.6127 59.8913 23.3753 60.238 24.034C60.602 24.6753 61.07 25.1693 61.642 25.516C62.2313 25.8627 62.8553 26.036 63.514 26.036C64.19 26.036 64.8227 25.8713 65.412 25.542C66.0013 25.1953 66.4693 24.71 66.816 24.086C67.1627 23.4447 67.336 22.682 67.336 21.798Z" fill="white"/>
<path d="M78.1971 16.832C78.6651 16.0693 79.2718 15.4713 80.0171 15.038C80.7798 14.6047 81.6464 14.388 82.6171 14.388V18.21H81.6551C80.5111 18.21 79.6444 18.4787 79.0551 19.016C78.4831 19.5533 78.1971 20.4893 78.1971 21.824V29H74.5571V14.596H78.1971V16.832Z" fill="white"/>
<path d="M86.9148 12.88C86.2735 12.88 85.7361 12.6807 85.3028 12.282C84.8868 11.866 84.6788 11.3547 84.6788 10.748C84.6788 10.1413 84.8868 9.63866 85.3028 9.24C85.7361 8.824 86.2735 8.616 86.9148 8.616C87.5561 8.616 88.0848 8.824 88.5008 9.24C88.9341 9.63866 89.1508 10.1413 89.1508 10.748C89.1508 11.3547 88.9341 11.866 88.5008 12.282C88.0848 12.6807 87.5561 12.88 86.9148 12.88ZM88.7088 14.596V29H85.0688V14.596H88.7088Z" fill="white"/>
<path d="M116.388 14.388C118.156 14.388 119.578 14.934 120.652 16.026C121.744 17.1007 122.29 18.6087 122.29 20.55V29H118.65V21.044C118.65 19.9173 118.364 19.0593 117.792 18.47C117.22 17.8633 116.44 17.56 115.452 17.56C114.464 17.56 113.676 17.8633 113.086 18.47C112.514 19.0593 112.228 19.9173 112.228 21.044V29H108.588V21.044C108.588 19.9173 108.302 19.0593 107.73 18.47C107.158 17.8633 106.378 17.56 105.39 17.56C104.385 17.56 103.588 17.8633 102.998 18.47C102.426 19.0593 102.14 19.9173 102.14 21.044V29H98.5005V14.596H102.14V16.338C102.608 15.7313 103.206 15.2547 103.934 14.908C104.68 14.5613 105.494 14.388 106.378 14.388C107.505 14.388 108.51 14.6307 109.394 15.116C110.278 15.584 110.963 16.26 111.448 17.144C111.916 16.312 112.592 15.6447 113.476 15.142C114.378 14.6393 115.348 14.388 116.388 14.388Z" fill="white"/>
<path d="M132.141 29.234C130.754 29.234 129.506 28.9307 128.397 28.324C127.287 27.7 126.412 26.8247 125.771 25.698C125.147 24.5713 124.835 23.2713 124.835 21.798C124.835 20.3247 125.155 19.0247 125.797 17.898C126.455 16.7713 127.348 15.9047 128.475 15.298C129.601 14.674 130.858 14.362 132.245 14.362C133.631 14.362 134.888 14.674 136.015 15.298C137.141 15.9047 138.025 16.7713 138.667 17.898C139.325 19.0247 139.655 20.3247 139.655 21.798C139.655 23.2713 139.317 24.5713 138.641 25.698C137.982 26.8247 137.081 27.7 135.937 28.324C134.81 28.9307 133.545 29.234 132.141 29.234ZM132.141 26.062C132.799 26.062 133.415 25.906 133.987 25.594C134.576 25.2647 135.044 24.7793 135.391 24.138C135.737 23.4967 135.911 22.7167 135.911 21.798C135.911 20.4287 135.547 19.38 134.819 18.652C134.108 17.9067 133.233 17.534 132.193 17.534C131.153 17.534 130.277 17.9067 129.567 18.652C128.873 19.38 128.527 20.4287 128.527 21.798C128.527 23.1673 128.865 24.2247 129.541 24.97C130.234 25.698 131.101 26.062 132.141 26.062Z" fill="white"/>
<path d="M150.307 14.388C152.023 14.388 153.409 14.934 154.467 16.026C155.524 17.1007 156.053 18.6087 156.053 20.55V29H152.413V21.044C152.413 19.9 152.127 19.0247 151.555 18.418C150.983 17.794 150.203 17.482 149.215 17.482C148.209 17.482 147.412 17.794 146.823 18.418C146.251 19.0247 145.965 19.9 145.965 21.044V29H142.325V14.596H145.965V16.39C146.45 15.766 147.065 15.2807 147.811 14.934C148.573 14.57 149.405 14.388 150.307 14.388Z" fill="white"/>
<path d="M172.904 21.486C172.904 22.006 172.869 22.474 172.8 22.89H162.27C162.357 23.93 162.721 24.7447 163.362 25.334C164.003 25.9233 164.792 26.218 165.728 26.218C167.08 26.218 168.042 25.6373 168.614 24.476H172.54C172.124 25.8627 171.327 27.0067 170.148 27.908C168.969 28.792 167.522 29.234 165.806 29.234C164.419 29.234 163.171 28.9307 162.062 28.324C160.97 27.7 160.112 26.8247 159.488 25.698C158.881 24.5713 158.578 23.2713 158.578 21.798C158.578 20.3073 158.881 18.9987 159.488 17.872C160.095 16.7453 160.944 15.8787 162.036 15.272C163.128 14.6653 164.385 14.362 165.806 14.362C167.175 14.362 168.397 14.6567 169.472 15.246C170.564 15.8353 171.405 16.676 171.994 17.768C172.601 18.8427 172.904 20.082 172.904 21.486ZM169.134 20.446C169.117 19.51 168.779 18.7647 168.12 18.21C167.461 17.638 166.655 17.352 165.702 17.352C164.801 17.352 164.038 17.6293 163.414 18.184C162.807 18.7213 162.435 19.4753 162.296 20.446H169.134Z" fill="white"/>
<path d="M189.341 14.596L180.423 35.812H176.549L179.669 28.636L173.897 14.596H177.979L181.697 24.658L185.467 14.596H189.341Z" fill="white"/>
<path d="M34.1422 5.85781C30.3647 2.08031 25.3422 0 20 0C14.6578 0 9.63531 2.08031 5.85781 5.85781C2.08031 9.63531 0 14.6578 0 20C0 25.3422 2.08039 30.3646 5.85781 34.1422C9.63523 37.9198 14.6578 40 20 40C25.3422 40 30.3647 37.9197 34.1422 34.1422C37.9197 30.3647 40 25.3422 40 20C40 14.6578 37.9196 9.63539 34.1422 5.85781Z" fill="#33CC95"/>
<g clip-path="url(#clip0_35212_417)">
<path d="M20.5714 8V33.1429" stroke="white" stroke-width="2" stroke-linecap="round" stroke-linejoin="round"/>
<path d="M26.2857 12.5714H17.7143C16.6534 12.5714 15.636 12.9929 14.8859 13.743C14.1357 14.4931 13.7143 15.5106 13.7143 16.5714C13.7143 17.6323 14.1357 18.6497 14.8859 19.3999C15.636 20.15 16.6534 20.5714 17.7143 20.5714H23.4286C24.4894 20.5714 25.5069 20.9929 26.257 21.743C27.0072 22.4932 27.4286 23.5106 27.4286 24.5714C27.4286 25.6323 27.0072 26.6497 26.257 27.3999C25.5069 28.15 24.4894 28.5714 23.4286 28.5714H13.7143" stroke="white" stroke-width="2" stroke-linecap="round" stroke-linejoin="round"/>
</g>
<defs>
<clipPath id="clip0_35212_417">
<rect width="27.4286" height="27.4286" fill="white" transform="translate(6.85715 6.85714)"/>
</clipPath>
</defs>
</svg>
